<svg width="21" height="24" viewBox="0 0 21 24" fill="none" xmlns="http://www.w3.org/2000/svg"><g clip-path="url(#a)" fill-rule="evenodd" clip-rule="evenodd" fill="#FCAC29"><path d="M0 .373C0 .171.164.008.365.008h9.804c.564 0 1.278.025 2.013.213 1.651.42 3.876 1.498 5.19 3.429 1.79 2.9 1.91 6.452-.392 9.672a.355.355 0 0 1-.534.048l-2.112-1.981a.375.375 0 0 1-.069-.455c1.316-2.386.691-3.784.125-4.923-.589-1.186-1.861-2.008-2.935-2.361-1.133-.508-3.217-.424-3.68-.424H4.222a.365.365 0 0 0-.365.366v14.414a.367.367 0 0 1-.162.304L.568 20.402A.365.365 0 0 1 0 20.1V.373Z"/><path d="M10.59 14.149a.222.222 0 0 1 .28.021l9.924 9.459a.222.222 0 0 1-.153.382h-4.559a.888.888 0 0 1-.62-.252l-5.075-4.942-1.614-1.614-.865-.865a.222.222 0 0 1 .03-.34l2.651-1.85Z"/></g><defs><clipPath id="a"><path fill="#fff" d="M0 0h20.867v24H0z"/></clipPath></defs></svg>
