<svg width="146" height="26" viewBox="0 0 146 26" fill="none" xmlns="http://www.w3.org/2000/svg"><path d="M134.543 24.722V7.832h3.613v4.314l-.97-.067c.468-1.316 1.248-2.352 2.341-3.11 1.093-.759 2.341-1.138 3.746-1.138h1.639v3.445h-2.207c-.87 0-1.628.2-2.275.602-.646.38-1.148.926-1.505 1.64-.357.713-.535 1.56-.535 2.541v8.663h-3.847Zm-9.805.502c-1.717 0-3.233-.38-4.549-1.137a8.093 8.093 0 0 1-3.043-3.145c-.736-1.337-1.104-2.898-1.104-4.682 0-1.762.357-3.311 1.07-4.65.736-1.36 1.74-2.407 3.011-3.143 1.293-.758 2.776-1.138 4.448-1.138 1.672 0 3.122.39 4.348 1.171 1.249.758 2.219 1.829 2.91 3.211.714 1.383 1.07 3 1.07 4.85v.635l-.501.502h-14.55v-3.21h13.312l-2.04.769c-.022-.937-.245-1.74-.669-2.409a4.027 4.027 0 0 0-1.606-1.572c-.646-.379-1.382-.568-2.207-.568-.892 0-1.706.211-2.442.635a4.193 4.193 0 0 0-1.706 1.706c-.401.713-.602 1.55-.602 2.508v1.338c0 .915.212 1.75.636 2.509a5.188 5.188 0 0 0 1.773 1.773 4.615 4.615 0 0 0 2.441.669c.848 0 1.617-.223 2.308-.67a4.844 4.844 0 0 0 1.672-1.872h.402l3.11 1.337c-.669 1.45-1.661 2.576-2.976 3.379-1.294.802-2.799 1.204-4.516 1.204Zm-18.118-.502.368-1.706 5.987-15.185h3.947V8.1l-6.79 16.623h-3.512Zm-.267 0-6.79-16.623V7.83h3.947l5.953 15.185.368 1.706h-3.478Zm-14.069.502c-1.717 0-3.233-.38-4.549-1.137a8.093 8.093 0 0 1-3.043-3.145c-.736-1.337-1.104-2.898-1.104-4.682 0-1.762.357-3.311 1.07-4.65.736-1.36 1.74-2.407 3.01-3.143 1.294-.758 2.777-1.138 4.449-1.138 1.672 0 3.122.39 4.348 1.171 1.249.758 2.219 1.829 2.91 3.211.714 1.383 1.07 3 1.07 4.85v.635l-.501.502h-14.55v-3.21h13.312l-2.04.769c-.023-.937-.245-1.74-.67-2.409a4.028 4.028 0 0 0-1.605-1.572c-.646-.379-1.382-.568-2.207-.568-.892 0-1.706.211-2.442.635a4.19 4.19 0 0 0-1.706 1.706c-.401.713-.602 1.55-.602 2.508v1.338c0 .915.212 1.75.636 2.509a5.189 5.189 0 0 0 1.773 1.773 4.62 4.62 0 0 0 2.441.669 4.16 4.16 0 0 0 2.308-.67 4.85 4.85 0 0 0 1.672-1.872h.402l3.11 1.337c-.669 1.45-1.66 2.576-2.977 3.379-1.293.802-2.798 1.204-4.515 1.204Zm-14.414-.502V.64l3.746-.468.1.267v24.283H77.87ZM61.334 9.852c.177-.24.367-.469.573-.682a6.912 6.912 0 0 1 2.362-1.654 7.088 7.088 0 0 1 2.936-.607c1.215 0 2.306.27 3.273.81.99.517 1.767 1.294 2.33 2.329.584 1.012.876 2.283.877 3.812v10.597h-3.528a.354.354 0 0 1-.353-.354v-9.061c0-1.08-.146-1.957-.439-2.632-.292-.675-.72-1.17-1.282-1.485-.54-.315-1.17-.473-1.89-.473-.674 0-1.373.17-2.092.507-.697.337-1.294.9-1.788 1.686-.495.788-.743 1.857-.743 3.206v8.606h-3.395a.486.486 0 0 1-.485-.486V7.393c0-.268.217-.485.485-.485h3.159v2.943ZM28.51 6.926c1.688 0 3.151.394 4.388 1.181 1.26.765 2.239 1.846 2.936 3.24.72 1.395 1.08 3.026 1.08 4.893v.662a.487.487 0 0 1-.486.485h-12.58c.09.612.28 1.186.58 1.721a5.239 5.239 0 0 0 1.789 1.79 4.667 4.667 0 0 0 2.463.674 4.21 4.21 0 0 0 2.329-.675c.72-.472 1.226-.938 1.63-1.725a.398.398 0 0 1 .526-.2l2.627 1.184a.466.466 0 0 1 .23.64 7.578 7.578 0 0 1-2.787 2.97c-1.304.81-2.823 1.214-4.555 1.214-1.732 0-3.262-.383-4.59-1.147a8.165 8.165 0 0 1-3.07-3.172c-.743-1.35-1.114-2.925-1.114-4.725 0-1.777.36-3.34 1.08-4.69.743-1.372 1.755-2.43 3.037-3.172 1.305-.765 2.8-1.147 4.488-1.148Zm18.74 0c1.687 0 3.15.394 4.387 1.181 1.26.765 2.238 1.846 2.935 3.24.72 1.395 1.08 3.026 1.08 4.893v.662a.486.486 0 0 1-.485.485H42.586a4.98 4.98 0 0 0 .581 1.721 5.235 5.235 0 0 0 1.788 1.79 4.67 4.67 0 0 0 2.464.674c.855 0 1.63-.225 2.328-.675.72-.472 1.227-.938 1.632-1.725l.018-.04c.08-.178.289-.259.467-.178l2.788 1.257c.18.08.258.292.17.466a7.593 7.593 0 0 1-2.847 3.088c-1.305.81-2.824 1.215-4.556 1.215-1.732 0-3.263-.383-4.59-1.147a8.164 8.164 0 0 1-3.07-3.172c-.743-1.35-1.114-2.925-1.114-4.725 0-1.777.36-3.34 1.08-4.69.742-1.372 1.755-2.43 3.037-3.172 1.304-.765 2.8-1.148 4.488-1.148Zm-18.67 3.409c-.9 0-1.722.214-2.465.641a4.227 4.227 0 0 0-1.72 1.721 4.627 4.627 0 0 0-.514 1.451h9.15a4.325 4.325 0 0 0-.605-1.653 4.068 4.068 0 0 0-1.62-1.587c-.652-.382-1.395-.573-2.227-.573Zm18.737 0c-.9 0-1.72.214-2.462.641a4.228 4.228 0 0 0-1.722 1.721 4.627 4.627 0 0 0-.513 1.451h9.149a4.323 4.323 0 0 0-.605-1.653 4.065 4.065 0 0 0-1.62-1.587c-.651-.383-1.394-.573-2.227-.573Z" fill="#FCA311"/><path fill-rule="evenodd" clip-rule="evenodd" d="M0 1.277C0 1.08.16.92.358.92h9.614c.553 0 1.253.025 1.974.209 1.62.412 3.8 1.47 5.09 3.363 1.755 2.843 1.872 6.327-.385 9.484a.349.349 0 0 1-.523.047l-2.072-1.942a.368.368 0 0 1-.067-.447c1.29-2.34.677-3.71.123-4.827-.578-1.163-1.826-1.97-2.879-2.315-1.11-.499-3.155-.416-3.61-.416H4.142a.358.358 0 0 0-.358.359V18.57a.36.36 0 0 1-.159.298L.557 20.919A.358.358 0 0 1 0 20.62V1.277Z" fill="#FCA311"/><path fill-rule="evenodd" clip-rule="evenodd" d="M10.384 14.786c.085-.06.2-.05.275.021l9.733 9.275a.218.218 0 0 1-.15.376H15.77a.87.87 0 0 1-.607-.247l-4.978-4.846-1.583-1.583-.849-.85a.218.218 0 0 1 .03-.331l2.6-1.815Z" fill="#FCA311"/></svg>
