<svg width="275" height="275" viewBox="0 0 275 275" fill="none" xmlns="http://www.w3.org/2000/svg"><g clip-path="url(#a)"><circle cx="137.328" cy="137.521" r="121.713" fill="#1F2937"/><path d="M137.316.022C61.483.022.008 61.497.008 137.331c0 75.833 61.475 137.307 137.308 137.307s137.308-61.474 137.308-137.307C274.624 61.497 213.149.022 137.316.022Zm0 258.37A121.057 121.057 0 0 1 25.47 183.659a121.062 121.062 0 1 1 111.846 74.733Z" fill="#FCA311"/><g clip-path="url(#b)" fill-rule="evenodd" clip-rule="evenodd" fill="#fff"><path d="M78.09 63.055a2.338 2.338 0 0 1 2.338-2.338h62.751c3.61 0 8.178.164 12.885 1.362 10.57 2.69 24.807 9.592 33.225 21.95 11.457 18.562 12.219 41.301-2.516 61.908-.802 1.123-2.407 1.251-3.414.307l-13.522-12.679c-.799-.75-.965-1.954-.436-2.913 8.417-15.272 4.419-24.222.799-31.511-3.77-7.59-11.915-12.853-18.79-15.111-7.249-3.253-20.593-2.71-23.559-2.71h-22.73a2.338 2.338 0 0 0-2.338 2.337v92.265c0 .78-.389 1.509-1.038 1.943l-20.017 13.393c-1.553 1.039-3.638-.074-3.638-1.943V63.055Z"/><path d="M145.871 151.23a1.42 1.42 0 0 1 1.793.136l63.527 60.543c.928.884.302 2.448-.98 2.448h-29.183a5.68 5.68 0 0 1-3.963-1.61l-32.488-31.633-10.333-10.333-5.539-5.539a1.421 1.421 0 0 1 .191-2.17l16.975-11.842Z"/></g></g><defs><clipPath id="a"><path fill="#fff" d="M0 0h274.658v274.658H0z"/></clipPath><clipPath id="b"><path fill="#fff" transform="translate(78.09 60.665)" d="M0 0h133.568v153.62H0z"/></clipPath></defs></svg>
