<svg viewBox="0 0 56 56" fill="none" xmlns="http://www.w3.org/2000/svg"><g clip-path="url(#clip0_14436_203906)"><path d="M28 .004C12.538.004.004 12.538.004 28 .004 43.462 12.538 55.996 28 55.996c15.461 0 27.995-12.534 27.995-27.996C55.995 12.54 43.461.004 28 .004Zm0 52.68a24.684 24.684 0 1 1 0-49.368 24.684 24.684 0 0 1 0 49.367Z" fill="#FCA311"/><path d="M28 3.317a24.684 24.684 0 1 0 0 49.369 24.684 24.684 0 0 0 0-49.37ZM17.004 16.41h11.104c7.402 0 11.877 3.8 11.877 10.079 0 2.365-.658 4.37-1.854 5.958l-2.955-2.78a6.734 6.734 0 0 0 .741-3.178c0-4.13-2.725-6.485-7.931-6.485H21.07v8.433l-4.067 4.326V16.41ZM37.61 39.59 28 29.98l-9.611 9.61h-4.752l13.035-13.594a1.878 1.878 0 0 1 2.655 0L42.364 39.59H37.61Z" fill="#293963"/><path d="M26.672 25.996 13.637 39.59h4.752l9.61-9.61 9.612 9.61h4.752L29.328 25.996a1.876 1.876 0 0 0-2.656 0Z" fill="#fff"/><path d="M21.071 20.004h6.915c5.206 0 7.931 2.355 7.931 6.485a6.738 6.738 0 0 1-.741 3.178l2.955 2.78c1.196-1.589 1.854-3.593 1.854-5.958 0-6.279-4.475-10.079-11.877-10.079H17.004v16.353l4.067-4.326v-8.433Z" fill="#fff"/></g></svg>
